<?xml version="1.0" standalone="no"?>
<svg
  width="600"
  height="600"
  viewBox="0 0 600 600"
  xmlns="http://www.w3.org/2000/svg"
>
  <g transform="translate(300,300)">
    <path d="M92.7,-80.3C134.4,-75.5,192.3,-59.8,193.4,-36.6C194.5,-13.4,138.8,17.3,111.3,63.5C83.7,109.7,84.3,171.4,57.9,197.8C31.5,224.3,-21.9,215.5,-51.3,185.5C-80.8,155.5,-86.3,104.2,-115.3,62.5C-144.3,20.7,-196.7,-11.6,-201.9,-44.8C-207,-78.1,-164.9,-112.2,-123.4,-117C-81.8,-121.9,-40.9,-97.4,-7.7,-88.2C25.5,-79.1,51,-85.1,92.7,-80.3Z" fill="#abb8c3" />
  </g>
</svg>
    