<?xml version="1.0" standalone="no"?>
<svg
  width="600"
  height="600"
  viewBox="0 0 600 600"
  xmlns="http://www.w3.org/2000/svg"
>
  <g transform="translate(300,300)">
    <path d="M100.8,-114C142.5,-85.2,196.3,-64.6,196.7,-38.3C197.1,-11.9,144,20.3,115.4,63.7C86.8,107,82.8,161.6,56.5,183.4C30.2,205.2,-18.2,194.2,-56.5,172.7C-94.7,151.2,-122.7,119.1,-122.1,86.7C-121.5,54.3,-92.2,21.6,-91,-21.4C-89.8,-64.4,-116.6,-117.6,-106.1,-151.9C-95.6,-186.2,-47.8,-201.6,-9.1,-190.8C29.6,-179.9,59.1,-142.8,100.8,-114Z" fill="#abb8c3" />
  </g>
</svg>
    