<?xml version="1.0" standalone="no"?>
<svg
  width="600"
  height="600"
  viewBox="0 0 600 600"
  xmlns="http://www.w3.org/2000/svg"
>
  <g transform="translate(300,300)">
    <path d="M144.2,-153.1C177.1,-144.4,187,-89.5,181.8,-43.3C176.6,3,156.3,40.8,128.4,60C100.4,79.3,64.9,80,35.9,84.3C7,88.6,-15.5,96.5,-53.9,102.3C-92.3,108.2,-146.6,112.1,-155.9,92C-165.1,71.8,-129.3,27.7,-112.9,-12C-96.4,-51.6,-99.3,-86.7,-83.7,-98.5C-68.1,-110.2,-34.1,-98.6,10.8,-111.5C55.7,-124.4,111.4,-161.8,144.2,-153.1Z" fill="#9900ef" />
  </g>
</svg>
    