<?xml version="1.0" standalone="no"?>
<svg
  width="600"
  height="600"
  viewBox="0 0 600 600"
  xmlns="http://www.w3.org/2000/svg"
>
  <g transform="translate(300,300)">
    <path d="M150.7,-159.7C180,-154.9,178.2,-93,159.2,-50.3C140.3,-7.6,104.4,16,91.2,65.8C78.1,115.6,87.8,191.7,64.7,217.2C41.6,242.8,-14.3,217.7,-68.5,195C-122.7,172.3,-175.2,151.9,-199.5,113.4C-223.7,75,-219.7,18.5,-200,-25.1C-180.2,-68.8,-144.7,-99.5,-108.8,-103.2C-72.8,-106.8,-36.4,-83.4,12.1,-97.8C60.6,-112.3,121.3,-164.5,150.7,-159.7Z" fill="#9900ef" />
  </g>
</svg>
    