<?xml version="1.0" standalone="no"?>
<svg
  width="600"
  height="600"
  viewBox="0 0 600 600"
  xmlns="http://www.w3.org/2000/svg"
>
  <g transform="translate(300,300)">
    <path d="M57.8,-54.7C83.9,-47,120.2,-37.3,151.7,-5.1C183.2,27.1,209.8,81.8,194.3,115.5C178.8,149.3,121.2,162,65.7,183.6C10.1,205.2,-43.3,235.5,-73.4,217.7C-103.5,199.8,-110.2,133.6,-126.4,83.6C-142.6,33.6,-168.3,-0.3,-175.9,-43.9C-183.5,-87.4,-173.1,-140.6,-140.8,-147.2C-108.4,-153.9,-54.2,-113.9,-19.2,-91.1C15.9,-68.2,31.7,-62.5,57.8,-54.7Z" fill="#abb8c3" />
  </g>
</svg>
    