<?xml version="1.0" standalone="no"?>
<svg
  width="600"
  height="600"
  viewBox="0 0 600 600"
  xmlns="http://www.w3.org/2000/svg"
>
  <g transform="translate(300,300)">
    <path d="M156,-157.7C204.4,-145.3,247.5,-98.2,249.7,-49.4C252,-0.5,213.5,50.3,174.3,84.3C135.2,118.4,95.5,135.8,60.5,134.9C25.5,134.1,-4.7,115,-38.1,103.3C-71.5,91.7,-108,87.6,-124.1,67.8C-140.1,48,-135.5,12.4,-119.4,-10.9C-103.2,-34.3,-75.4,-45.5,-53.5,-62.6C-31.7,-79.8,-15.9,-102.9,19,-125.5C53.8,-148.1,107.6,-170.2,156,-157.7Z" fill="#abb8c3" />
  </g>
</svg>
    